<svg xmlns="http://www.w3.org/2000/svg" width="15.394" height="17.593" viewBox="0 0 15.394 17.593">
  <defs>
    <style>
      .cls-1 {
        fill: #878787;
      }
    </style>
  </defs>
  <path id="Icon_metro-attachment" data-name="Icon metro-attachment" class="cls-1" d="M14.424,7.547,13.309,6.432l-5.58,5.579a2.367,2.367,0,0,0,3.348,3.348l6.7-6.7a3.945,3.945,0,1,0-5.58-5.579l-7.031,7.03-.015.015a5.5,5.5,0,0,0,7.783,7.781l.014-.015h0l4.8-4.8-1.117-1.115-4.8,4.8-.015.014a3.924,3.924,0,0,1-5.551-5.549l.015-.015h0L13.309,4.2a2.367,2.367,0,1,1,3.348,3.347l-6.7,6.7a.789.789,0,1,1-1.116-1.115l5.58-5.58Z" transform="translate(-3.535 -1.928)"/>
</svg>
