<svg xmlns="http://www.w3.org/2000/svg" width="21.146" height="16.522" viewBox="0 0 21.146 16.522">
    <path data-name="Icon awesome-exchange-alt" d="M0 8.562V7.9a.991.991 0 0 1 .991-.99h14.868V4.928a.992.992 0 0 1 1.692-.7l3.3 3.3a.991.991 0 0 1 0 1.4l-3.3 3.3a.992.992 0 0 1-1.692-.7V9.554H.991A.991.991 0 0 1 0 8.562zm20.154 6.278H5.286v-1.982a.992.992 0 0 0-1.692-.7l-3.3 3.3a.991.991 0 0 0 0 1.4l3.3 3.3a.992.992 0 0 0 1.692-.7v-1.975h14.868a.991.991 0 0 0 .991-.991v-.661a.991.991 0 0 0-.991-.991z" transform="translate(0 -3.936)" style="fill:#c8c8c8"/>
</svg>
