<svg xmlns="http://www.w3.org/2000/svg" width="18.634" height="21.296" viewBox="0 0 18.634 21.296">
    <path data-name="Icon metro-file-text" d="M22.255 6.692a18.86 18.86 0 0 0-1.813-2.074 18.862 18.862 0 0 0-2.074-1.813 3.317 3.317 0 0 0-1.891-.878H6.162A1.666 1.666 0 0 0 4.5 3.592V21.56a1.666 1.666 0 0 0 1.664 1.664h15.305a1.666 1.666 0 0 0 1.664-1.664V8.583a3.317 3.317 0 0 0-.878-1.891zM19.5 5.56a18.153 18.153 0 0 1 1.509 1.692h-3.2V4.05A18.134 18.134 0 0 1 19.5 5.56zm2.3 16a.337.337 0 0 1-.333.333H6.162a.337.337 0 0 1-.333-.333V3.592a.337.337 0 0 1 .333-.333h10.316v4.659a.666.666 0 0 0 .666.666H21.8zm-3.328-2.329H9.157a.666.666 0 1 1 0-1.331h9.317a.666.666 0 1 1 0 1.331zm0-2.662H9.157a.666.666 0 1 1 0-1.331h9.317a.666.666 0 1 1 0 1.331zm0-2.662H9.157a.666.666 0 1 1 0-1.331h9.317a.666.666 0 1 1 0 1.331z" transform="translate(-4.499 -1.928)" style="fill:#989898"/>
</svg>
